<svg width="461" height="75" viewBox="0 0 461 75" fill="none" xmlns="http://www.w3.org/2000/svg">
<path d="M145.608 68.3402C144.83 68.3402 144.44 67.9486 144.44 67.1653V2.98334C144.44 2.20008 144.83 1.80844 145.608 1.80844H185.9C186.679 1.80844 187.068 2.20008 187.068 2.98334V12.1407C187.068 12.9239 186.679 13.3156 185.9 13.3156H156.603V30.536H181.846C182.625 30.536 183.014 30.9276 183.014 31.7109V40.8682C183.014 41.6515 182.625 42.0431 181.846 42.0431H156.603V67.1538C156.603 67.9371 156.214 68.3287 155.435 68.3287H145.608V68.3402Z" fill="white"/>
<path d="M196.758 64.6658C193.78 61.6133 192.303 57.3629 192.303 51.9261V22.5536C192.303 21.7703 192.692 21.3787 193.471 21.3787H202.839C203.618 21.3787 204.008 21.7703 204.008 22.5536V47.1229C204.008 51.0507 204.729 53.9419 206.172 55.7849C207.615 57.6279 209.872 58.5494 212.93 58.5494C215.987 58.5494 218.61 57.3975 220.775 55.1053C222.939 52.8131 224.016 49.5418 224.016 45.3144V22.5651C224.016 21.7818 224.405 21.3902 225.184 21.3902H234.564C235.343 21.3902 235.733 21.7818 235.733 22.5651V67.1653C235.733 67.9486 235.343 68.3402 234.564 68.3402H226.089C225.253 68.3402 224.829 67.9486 224.829 67.1653L224.566 61.8207C222.882 64.2396 220.695 66.0826 217.992 67.3496C215.289 68.6167 212.403 69.2502 209.345 69.2502C203.939 69.2502 199.747 67.7182 196.769 64.6773L196.758 64.6658Z" fill="white"/>
<path d="M247.369 68.3402C246.59 68.3402 246.201 67.9486 246.201 67.1653V1.53199C246.201 0.748721 246.59 0.357086 247.369 0.357086H256.749C257.528 0.357086 257.917 0.748721 257.917 1.53199V67.1538C257.917 67.9371 257.528 68.3287 256.749 68.3287H247.369V68.3402Z" fill="white"/>
<path d="M269.542 68.3402C268.763 68.3402 268.374 67.9486 268.374 67.1653V1.53199C268.374 0.748721 268.763 0.357086 269.542 0.357086H278.922C279.701 0.357086 280.09 0.748721 280.09 1.53199V67.1538C280.09 67.9371 279.701 68.3287 278.922 68.3287H269.542V68.3402Z" fill="white"/>
<path d="M298.106 66.1632C294.796 64.1129 292.265 61.2447 290.49 57.5472C288.714 53.8613 287.832 49.6339 287.832 44.8537C287.832 40.0734 288.714 35.8461 290.49 32.1601C292.265 28.4741 294.807 25.606 298.106 23.5441C301.416 21.4938 305.253 20.4571 309.639 20.4571C312.64 20.4571 315.411 21.0331 317.931 22.1734C320.451 23.3253 322.581 24.9494 324.333 27.0689V1.53199C324.333 0.748721 324.723 0.357086 325.502 0.357086H334.87C335.649 0.357086 336.038 0.748721 336.038 1.53199V67.1538C336.038 67.9371 335.649 68.3287 334.87 68.3287H326.395C325.547 68.3287 325.135 67.9371 325.135 67.1538L324.872 61.9013C323.188 64.2626 321.046 66.071 318.424 67.3381C315.812 68.6051 312.88 69.2387 309.639 69.2387C305.253 69.2387 301.404 68.2135 298.106 66.1517V66.1632ZM321.63 54.7482C323.978 52.2141 325.146 48.9198 325.146 44.8652C325.146 40.8106 323.978 37.5278 321.63 34.9822C319.294 32.4481 316.259 31.1695 312.525 31.1695C308.792 31.1695 305.768 32.4366 303.42 34.9822C301.084 37.5163 299.904 40.8106 299.904 44.8652C299.904 48.9198 301.072 52.2026 303.42 54.7482C305.768 57.2823 308.792 58.5609 312.525 58.5609C316.259 58.5609 319.283 57.2938 321.63 54.7482Z" fill="white"/>
<path d="M347.457 11.2307C346.163 10.0212 345.521 8.45469 345.521 6.51956C345.521 4.58443 346.163 3.01789 347.457 1.80843C348.751 0.59897 350.389 0 352.37 0C354.352 0 355.99 0.59897 357.284 1.80843C358.578 3.01789 359.219 4.58443 359.219 6.51956C359.219 8.45469 358.567 10.0212 357.284 11.2307C355.99 12.4402 354.352 13.0391 352.37 13.0391C350.389 13.0391 348.751 12.4402 347.457 11.2307ZM347.686 68.3402C346.907 68.3402 346.518 67.9486 346.518 67.1653V22.5651C346.518 21.7818 346.907 21.3901 347.686 21.3901H357.066C357.845 21.3901 358.234 21.7818 358.234 22.5651V67.1653C358.234 67.9486 357.845 68.3402 357.066 68.3402H347.686Z" fill="white"/>
<path d="M385.802 68.3402C385.206 68.3402 384.748 68.0407 384.45 67.4303L364.534 22.7379C364.408 22.496 364.35 22.3117 364.35 22.1965C364.35 21.6551 364.705 21.3787 365.427 21.3787H376.605C377.269 21.3787 377.716 21.6781 377.957 22.2886L389.135 50.8434L400.313 22.2886C400.553 21.6897 401 21.3787 401.664 21.3787H412.121C412.602 21.3787 412.911 21.5054 413.072 21.7473C413.221 21.9892 413.209 22.3232 413.026 22.7379L393.109 67.4303C392.811 68.0407 392.353 68.3402 391.757 68.3402H385.813H385.802Z" fill="white"/>
<path d="M425.418 66.1632C421.845 64.1128 419.107 61.2217 417.218 57.5126C415.328 53.7921 414.377 49.5763 414.377 44.8652C414.377 40.154 415.328 35.9382 417.218 32.2177C419.107 28.4971 421.845 25.6175 425.418 23.5556C428.991 21.5053 433.183 20.4686 437.993 20.4686C442.804 20.4686 446.721 21.5744 450.122 23.7745C453.512 25.9861 456.055 29.1076 457.738 33.1507C459.422 37.2053 460.201 41.9164 460.086 47.2956C460.029 48.0789 459.605 48.4705 458.827 48.4705H426.827C427.365 51.7303 428.613 54.2759 430.572 56.0843C432.519 57.8928 435.027 58.8027 438.096 58.8027C442.781 58.8027 446.205 57.0173 448.37 53.4581C448.668 52.9167 449.183 52.7324 449.905 52.9167L457.922 55.7273C458.701 56.0267 458.918 56.5451 458.552 57.2708C456.57 61.2562 453.776 64.2511 450.168 66.2438C446.56 68.2365 442.506 69.2386 438.005 69.2386C433.195 69.2386 429.003 68.2135 425.429 66.1516L425.418 66.1632ZM447.545 39.6933C447.007 36.9173 445.896 34.7518 444.212 33.2083C442.529 31.6648 440.433 30.893 437.902 30.893C435.142 30.893 432.805 31.6648 430.915 33.2083C429.026 34.7518 427.72 36.9058 426.998 39.6933H447.545Z" fill="white"/>
<path d="M35.2869 66.7852C32.561 65.115 30.1788 63.6637 27.4529 61.9934C28.1859 60.3348 28.667 58.8258 29.4687 57.5012C36.0886 46.5124 42.8459 35.6042 49.42 24.5924C56.7385 12.348 67.0347 6.07036 81.603 6.66933C94.167 7.18767 106.754 6.80755 119.341 6.85363C119.707 6.85363 120.074 7.09552 120.44 7.23375C117.016 19.8121 111.129 24.4772 98.5994 24.5002C91.0862 24.5233 83.5844 24.5348 76.0712 24.5233C66.5766 24.5002 59.2008 28.4511 54.1157 36.5027C47.828 46.4548 41.6776 56.476 35.2639 66.7967L35.2869 66.7852Z" fill="white"/>
<path d="M48.3319 74.5603C45.0792 72.6597 42.6626 71.2544 39.6047 69.4575C46.6025 58.342 52.9474 47.4108 60.243 37.1707C62.5795 33.8994 67.3554 30.7894 71.2265 30.5014C82.8857 29.6375 94.648 30.1904 106.422 30.1904C103.845 40.9834 98.2214 45.5333 87.6159 45.6024C64.1371 45.7291 67.4471 43.1489 54.3562 64.8501C52.4779 67.9601 50.5309 71.0241 48.3434 74.5603H48.3319Z" fill="white"/>
<path d="M33.5002 40.9373C29.6978 47.2265 26.2619 52.8937 22.7687 58.6761C15.244 56.2456 9.25407 46.5469 0 56.7755C5.612 39.1289 11.9341 38.6566 33.5002 40.9489V40.9373Z" fill="white"/>
</svg>
